FFmpeg version SVN-r25716, Copyright (c) 2000-2010 the FFmpeg developers  built on Nov 10 2010 12:23:18 with gcc 4.1.2 20080704 (Red Hat 4.1.2-48)  configuration: --enable-libmp3lame --enable-shared --disable-mmx --arch=x86_64  libavutil     50.33. 0 / 50.33. 0  libavcore      0.12. 1 /  0.12. 1  libavcodec    52.94. 4 / 52.94. 4  libavformat   52.84. 0 / 52.84. 0  libavdevice   52. 2. 2 / 52. 2. 2  libavfilter    1.59. 0 /  1.59. 0  libswscale     0.12. 0 /  0.12. 0Input #0, avi, from '/RAID10/data/converted_video_files/47586.avi':  Duration: 00:00:01.66, start: 0.000000, bitrate: 282385 kb/s    Stream #0.0: Video: msvideo1, rgb555le, 1024x1024, 30 tbr, 30 tbn, 30 tbc[buffer @ 0x1af0dc20] w:1024 h:1024 pixfmt:rgb555le[ffsink @ 0x1af47fa0] auto-inserting filter 'auto-inserted scaler 0' between the filter 'src' and the filter 'out'[scale @ 0x1af482c0] w:1024 h:1024 fmt:rgb555le -> w:1024 h:1024 fmt:yuv420p flags:0x4Output #0, flv, to '/RAID10/data/converted_video_files/47586.flv':  Metadata:    encoder         : Lavf52.84.0    Stream #0.0: Video: flv, yuv420p, 1024x1024, q=2-31, 600 kb/s, 1k tbn, 24 tbcStream mapping:  Stream #0.0 -> #0.0Press [q] to stop encodingframe=    8 fps=  0 q=11.5 size=     332kB time=0.33 bitrate=8167.7kbits/s dup=0 drop=1    frame=   16 fps= 13 q=20.0 size=     368kB time=0.67 bitrate=4520.9kbits/s dup=0 drop=4    frame=   23 fps= 14 q=19.1 size=     376kB time=0.96 bitrate=3219.2kbits/s dup=0 drop=6    frame=   32 fps= 14 q=23.6 size=     415kB time=1.33 bitrate=2550.2kbits/s dup=0 drop=7    frame=   40 fps= 15 q=25.4 size=     451kB time=1.67 bitrate=2215.0kbits/s dup=0 drop=9    frame=   40 fps= 14 q=25.4 Lsize=     451kB time=1.67 bitrate=2215.0kbits/s dup=0 drop=10    video:450kB audio:0kB global headers:0kB muxing overhead 0.184499%